<svg width="14" height="14" viewBox="0 0 14 14" fill="none" xmlns="http://www.w3.org/2000/svg">
<path d="M2.0413 4.66665C2.04141 4.1136 2.18449 3.56997 2.45664 3.08852C2.7288 2.60706 3.12078 2.20414 3.59456 1.91884C4.06834 1.63354 4.60783 1.47555 5.16067 1.46022C5.7135 1.44488 6.26092 1.57271 6.74979 1.83131C7.23866 2.08991 7.65238 2.47048 7.9508 2.93611C8.24923 3.40173 8.42222 3.93659 8.453 4.48879C8.48377 5.04098 8.37128 5.59175 8.12644 6.08765C7.88161 6.58356 7.51274 7.00775 7.05563 7.31906C8.04001 7.68011 8.89382 8.32748 9.50717 9.17786C10.1205 10.0282 10.4654 11.0427 10.4973 12.0907C10.4959 12.2037 10.451 12.3118 10.3718 12.3924C10.2926 12.4731 10.1853 12.52 10.0724 12.5234C9.95943 12.5267 9.84954 12.4864 9.76567 12.4106C9.6818 12.3349 9.63043 12.2297 9.6223 12.117C9.58756 10.9803 9.11162 9.90187 8.29532 9.11014C7.47902 8.31841 6.38652 7.87562 5.24934 7.87562C4.11216 7.87562 3.01966 8.31841 2.20337 9.11014C1.38707 9.90187 0.91112 10.9803 0.876383 12.117C0.870542 12.2312 0.820194 12.3386 0.736125 12.4162C0.652056 12.4938 0.540953 12.5353 0.426617 12.532C0.312281 12.5286 0.203806 12.4806 0.124431 12.3982C0.0450568 12.3159 0.00109568 12.2057 0.0019658 12.0913C0.0337874 11.0432 0.37857 10.0286 0.991933 9.1781C1.6053 8.32761 2.45917 7.68015 3.44363 7.31906C3.01128 7.02485 2.65747 6.62934 2.41304 6.16702C2.16861 5.7047 2.04099 5.18961 2.0413 4.66665ZM5.24963 2.33332C4.63079 2.33332 4.0373 2.57915 3.59972 3.01673C3.16213 3.45432 2.9163 4.04781 2.9163 4.66665C2.9163 5.28549 3.16213 5.87898 3.59972 6.31656C4.0373 6.75415 4.63079 6.99998 5.24963 6.99998C5.86847 6.99998 6.46196 6.75415 6.89955 6.31656C7.33713 5.87898 7.58297 5.28549 7.58297 4.66665C7.58297 4.04781 7.33713 3.45432 6.89955 3.01673C6.46196 2.57915 5.86847 2.33332 5.24963 2.33332ZM10.0855 4.66665C9.99913 4.66665 9.91513 4.67248 9.8323 4.68415C9.77447 4.6945 9.71514 4.6931 9.65786 4.68003C9.60058 4.66696 9.54652 4.64249 9.4989 4.60807C9.45129 4.57366 9.41109 4.53 9.38071 4.47971C9.35033 4.42942 9.33039 4.37353 9.32208 4.31537C9.31378 4.25721 9.31727 4.19797 9.33235 4.14118C9.34743 4.0844 9.3738 4.03124 9.40987 3.98486C9.44595 3.93849 9.49099 3.89986 9.54232 3.87127C9.59365 3.84269 9.65021 3.82473 9.70863 3.81848C10.2888 3.7346 10.8804 3.84601 11.3903 4.13519C11.9002 4.42436 12.2995 4.87488 12.5253 5.41584C12.7511 5.9568 12.7907 6.55749 12.6377 7.12338C12.4847 7.68927 12.1479 8.18823 11.6803 8.54173C12.3677 8.84952 12.9513 9.34965 13.3608 9.98177C13.7703 10.6139 13.9881 11.351 13.988 12.1041C13.988 12.2202 13.9419 12.3315 13.8598 12.4135C13.7778 12.4956 13.6665 12.5416 13.5505 12.5416C13.4344 12.5416 13.3232 12.4956 13.2411 12.4135C13.1591 12.3315 13.113 12.2202 13.113 12.1041C13.1129 11.4532 12.9032 10.8197 12.5148 10.2973C12.1265 9.77487 11.5802 9.39146 10.957 9.20381L10.6455 9.11048V8.13281L10.8846 8.0109C11.2392 7.83132 11.5228 7.5375 11.6898 7.17687C11.8568 6.81625 11.8974 6.40987 11.805 6.02334C11.7127 5.63681 11.4927 5.29269 11.1807 5.04653C10.8687 4.80037 10.4829 4.66654 10.0855 4.66665Z" fill="#64108F"/>
</svg>
