<svg width="23" height="40" viewBox="0 0 23 40" fill="none" xmlns="http://www.w3.org/2000/svg">
<path d="M9.46094 16.9229C9.46094 17.4327 9.04766 17.8459 8.53786 17.8459C8.02806 17.8459 7.61479 17.4327 7.61479 16.9229L7.61479 0.922901C7.61479 0.413101 8.02806 -0.000173694 8.53786 -0.000173649C9.04766 -0.000173605 9.46094 0.413101 9.46094 0.922901L9.46094 16.9229Z" fill="#D586FD"/>
<path fill-rule="evenodd" clip-rule="evenodd" d="M7.92248 0.922901L7.92248 16.9229C7.92248 17.2627 8.198 17.5383 8.53786 17.5383C8.87773 17.5383 9.15325 17.2627 9.15325 16.9229L9.15325 0.922901C9.15325 0.583034 8.87773 0.307518 8.53786 0.307518C8.198 0.307518 7.92248 0.583034 7.92248 0.922901ZM8.53786 17.8459C9.04766 17.8459 9.46094 17.4327 9.46094 16.9229L9.46094 0.922901C9.46094 0.413101 9.04766 -0.000173605 8.53786 -0.000173649C8.02806 -0.000173694 7.61479 0.413101 7.61479 0.922901L7.61479 16.9229C7.61479 17.4327 8.02806 17.8459 8.53786 17.8459Z" fill="#D586FD"/>
<path d="M16.2305 16.9229C16.2305 17.4327 15.8172 17.8459 15.3074 17.8459C14.7976 17.8459 14.3843 17.4327 14.3843 16.9229L14.3843 0.922901C14.3843 0.413101 14.7976 -0.000173694 15.3074 -0.000173649C15.8172 -0.000173605 16.2305 0.413101 16.2305 0.922901L16.2305 16.9229Z" fill="#D586FD"/>
<path fill-rule="evenodd" clip-rule="evenodd" d="M14.692 0.922901L14.692 16.9229C14.692 17.2627 14.9675 17.5383 15.3074 17.5383C15.6473 17.5383 15.9228 17.2627 15.9228 16.9229L15.9228 0.922901C15.9228 0.583034 15.6473 0.307518 15.3074 0.307518C14.9675 0.307518 14.692 0.583034 14.692 0.922901ZM15.3074 17.8459C15.8172 17.8459 16.2305 17.4327 16.2305 16.9229L16.2305 0.922901C16.2305 0.413101 15.8172 -0.000173605 15.3074 -0.000173649C14.7976 -0.000173694 14.3843 0.413101 14.3843 0.922901L14.3843 16.9229C14.3843 17.4327 14.7976 17.8459 15.3074 17.8459Z" fill="#D586FD"/>
<path fill-rule="evenodd" clip-rule="evenodd" d="M11.654 7.38697C14.1302 7.34179 16.5964 7.92244 18.6186 9.08557C20.6357 10.2457 22.1904 11.9834 22.7652 14.1078C23.3519 16.2764 22.8126 18.4716 21.4192 20.249C20.0611 21.9811 17.9056 23.3384 15.5452 23.9684C15.0526 24.0999 14.5468 23.8072 14.4153 23.3146C14.2838 22.8221 14.5766 22.3162 15.0691 22.1847C17.093 21.6446 18.8857 20.4883 19.9663 19.1099C21.0384 17.7425 21.4024 16.1397 20.9831 14.59C20.565 13.0444 19.3978 11.6635 17.6982 10.6859C15.9976 9.70772 13.868 9.193 11.6876 9.23279C9.50733 9.27258 7.41708 9.86427 5.78813 10.9033C4.15996 11.9419 3.09166 13.3645 2.78382 14.9248C2.47529 16.4886 2.95328 18.0748 4.12004 19.3999C5.32715 20.7708 6.72638 21.7206 8.74163 22.1762C9.23887 22.2887 9.55082 22.7829 9.4384 23.2801C9.32598 23.7774 8.83176 24.0893 8.33452 23.9769C5.89441 23.4252 4.16568 22.2453 2.7345 20.6199C1.23983 18.9224 0.538666 16.767 0.972624 14.5675C1.39956 12.4035 2.84581 10.5904 4.79535 9.34686C6.74705 8.10195 9.17855 7.43214 11.654 7.38697Z" fill="#8726B9"/>
<path fill-rule="evenodd" clip-rule="evenodd" d="M12.1917 32.6131C9.71576 32.6578 7.2497 32.0833 5.22757 30.9325C3.2107 29.7848 1.6556 28.0654 1.08063 25.9627C0.493645 23.8162 1.03331 21.6434 2.42694 19.8846C3.75863 18.204 5.89789 16.6656 8.30024 16.0312C8.79283 15.9011 9.29859 16.1913 9.42988 16.6794C9.56117 17.1675 9.26827 17.6686 8.77568 17.7987C6.79372 18.3221 4.98596 19.6172 3.87899 21.0142C2.80718 22.3669 2.44344 23.9519 2.86249 25.4844C3.28044 27.0128 4.44722 28.379 6.14702 29.3464C7.84771 30.3142 9.97751 30.8235 12.1581 30.7842C14.3386 30.7448 16.4291 30.1593 18.0581 29.1312C19.6864 28.1036 20.7542 26.6962 21.0619 25.1532C21.3703 23.6069 20.8927 22.0382 19.7261 20.7273C18.4839 19.3315 17.078 18.2487 15.1038 17.8071C14.6065 17.6958 14.2944 17.2062 14.4066 16.7135C14.5189 16.2208 15.013 15.9116 15.5103 16.0228C17.9914 16.5778 19.7147 17.9488 21.1108 19.5175C22.6056 21.1973 23.3072 23.3305 22.873 25.5078C22.4459 27.6496 20.9993 29.4437 19.0498 30.674C17.0982 31.9057 14.6669 32.5684 12.1917 32.6131Z" fill="#D586FD"/>
<path d="M14.3828 23.0769C14.3828 22.5671 14.7961 22.1538 15.3059 22.1538C15.8157 22.1538 16.229 22.5671 16.229 23.0769L16.229 39.0769C16.229 39.5867 15.8157 39.9999 15.3059 39.9999C14.7961 39.9999 14.3828 39.5867 14.3828 39.0769L14.3828 23.0769Z" fill="#8726B9"/>
<path d="M7.61523 23.0769C7.61523 22.5671 8.02851 22.1538 8.53831 22.1538C9.04811 22.1538 9.46138 22.5671 9.46138 23.0769L9.46138 39.0769C9.46138 39.5867 9.04811 39.9999 8.53831 39.9999C8.02851 39.9999 7.61523 39.5867 7.61523 39.0769L7.61523 23.0769Z" fill="#8726B9"/>
</svg>
