<svg width="21" height="24" viewBox="0 0 21 24" fill="none" xmlns="http://www.w3.org/2000/svg">
<path d="M12.6679 0H3.7118C2.84947 0 2.14648 0.702988 2.14648 1.57001V22.43C2.14648 23.297 2.84947 23.9953 3.71649 24H19.44C20.307 24 21.0053 23.297 21.01 22.43L20.9631 6.93615L12.6679 0Z" fill="#FEBABA"/>
<path d="M12.668 0L12.6445 6.77212C12.6445 6.77212 12.668 6.93615 12.8086 6.93615H20.9632L12.668 0Z" fill="#FB4A4A"/>
<path d="M0.637376 11.5618H16.4593C16.8108 11.5618 17.0967 11.8476 17.0967 12.1991V19.2665C17.0967 19.618 16.8108 19.9039 16.4593 19.9039H0.637376C0.285882 19.9039 0 19.618 0 19.2665V12.1991C0 11.8476 0.285882 11.5618 0.637376 11.5618Z" fill="#FB4A4A"/>
<path d="M3.23242 17.5278V14.0176H5.04144C5.37888 14.0176 5.63195 14.0457 5.81004 14.1019C5.98345 14.1582 6.1381 14.2707 6.23652 14.4206C6.349 14.5893 6.40524 14.7862 6.40055 14.9877C6.41461 15.3345 6.23184 15.6626 5.93189 15.836C5.81473 15.9016 5.68351 15.9485 5.55228 15.9766C5.6507 16.0047 5.74443 16.0516 5.83348 16.1078C5.89909 16.164 5.95533 16.225 6.00688 16.2906C6.06312 16.3562 6.11467 16.4312 6.15685 16.5108L6.68175 17.5278H5.45855L4.87741 16.4593C4.80243 16.3187 4.73682 16.2296 4.68058 16.1875C4.6009 16.1312 4.51186 16.1031 4.41344 16.1078H4.31971V17.5325L3.23242 17.5278ZM4.31971 15.4423H4.77899C4.87741 15.4329 4.97114 15.4189 5.06488 15.3954C5.13518 15.3814 5.1961 15.3439 5.24297 15.283C5.34607 15.1377 5.33201 14.9408 5.20547 14.819C5.13518 14.7581 4.99926 14.7299 4.80243 14.7299H4.3244V15.4423H4.31971Z" fill="#FCFCFD"/>
<path d="M7.02812 14.0176H9.93381V14.7674H8.11541V15.3251H9.80258V16.0422H8.11541V16.7358H9.98536V17.5325H7.02344V14.0176H7.02812Z" fill="#FCFCFD"/>
<path d="M12.9097 16.0937L13.8611 16.3796C13.8095 16.6233 13.7064 16.8482 13.5611 17.0451C13.4299 17.2231 13.2518 17.3591 13.0503 17.4481C12.8488 17.5371 12.5863 17.584 12.2723 17.584C11.8927 17.584 11.5787 17.5278 11.335 17.42C11.0913 17.3122 10.8851 17.1153 10.7117 16.8342C10.5383 16.553 10.4492 16.1968 10.4492 15.7609C10.4492 15.1798 10.6039 14.7346 10.9132 14.4206C11.2225 14.1066 11.6584 13.9519 12.2254 13.9519C12.666 13.9519 13.0175 14.0409 13.2659 14.219C13.5189 14.3971 13.7064 14.6736 13.8282 15.0439L12.8722 15.2548C12.8488 15.1704 12.8159 15.0907 12.7691 15.0204C12.7128 14.9408 12.6332 14.8752 12.5441 14.8283C12.2395 14.683 11.8739 14.7814 11.6865 15.0579C11.5881 15.2032 11.5365 15.4329 11.5365 15.7516C11.5365 16.1405 11.5974 16.4077 11.7146 16.553C11.8318 16.6982 12.0005 16.7685 12.2114 16.7732C12.4176 16.7732 12.5769 16.717 12.68 16.5998C12.7831 16.4873 12.8581 16.3186 12.9097 16.0937Z" fill="#FCFCFD"/>
</svg>
