<svg width="25" height="22" viewBox="0 0 25 22" fill="none" xmlns="http://www.w3.org/2000/svg">
<path fill-rule="evenodd" clip-rule="evenodd" d="M5.75189 13.3566C5.80202 13.3733 5.85357 13.3854 5.90589 13.3927C6.23597 14.1705 6.56419 14.9491 6.89056 15.7284C7.47739 17.1307 8.06889 18.5751 8.19839 18.9904C8.36056 19.5014 8.53089 19.8491 8.71756 20.0871C8.81439 20.2084 8.92523 20.3157 9.05589 20.3974C9.12396 20.44 9.19679 20.4744 9.27289 20.5001C9.64623 20.6401 9.98689 20.5817 10.2004 20.5106C10.3257 20.4678 10.4449 20.409 10.5551 20.3356L10.5609 20.3332L13.8579 18.2776L17.6671 21.1966C17.7231 21.2397 17.7837 21.2759 17.8491 21.3051C18.3064 21.5034 18.7497 21.5734 19.1674 21.5174C19.5827 21.4591 19.9129 21.2852 20.1591 21.0881C20.4417 20.8602 20.6671 20.5694 20.8171 20.2387L20.8276 20.2131L20.8311 20.2037L20.8334 20.1991V20.1967L20.8346 20.1956C20.8548 20.1454 20.8705 20.0934 20.8812 20.0404L24.3579 2.51124C24.3689 2.45513 24.3743 2.39808 24.3742 2.3409C24.3742 1.82757 24.1806 1.33874 23.7267 1.04357C23.3371 0.790403 22.9042 0.778736 22.6301 0.799736C22.3361 0.823069 22.0631 0.895402 21.8799 0.953736C21.7774 0.986233 21.6762 1.02282 21.5766 1.0634L21.5637 1.06924L2.06406 8.7179L2.06173 8.71907C1.99575 8.74334 1.93076 8.77019 1.86689 8.79957C1.71227 8.86909 1.56394 8.95184 1.42356 9.0469C1.15873 9.22774 0.548561 9.72474 0.652394 10.5461C0.734061 11.1994 1.18206 11.6019 1.45623 11.7956C1.60556 11.9017 1.74789 11.9776 1.85289 12.0277C1.89956 12.0511 1.99989 12.0907 2.04306 12.1094L2.05473 12.1129L5.75189 13.3566ZM22.2462 2.67924H22.2439C22.2339 2.68369 22.2237 2.68797 22.2136 2.69207L2.69056 10.3512C2.68052 10.3553 2.6704 10.3592 2.66023 10.3629L2.64856 10.3664C2.6129 10.3804 2.57786 10.396 2.54356 10.4131C2.57603 10.4317 2.60953 10.4484 2.64389 10.4632L6.30956 11.6976C6.37507 11.7196 6.43773 11.7494 6.49623 11.7862L18.6027 4.69874L18.6144 4.6929C18.6614 4.66433 18.7097 4.63785 18.7591 4.61357C18.8431 4.5704 18.9772 4.5074 19.1289 4.46074C19.2339 4.42807 19.5454 4.3359 19.8814 4.4444C20.0596 4.50058 20.2184 4.60574 20.3397 4.74788C20.4611 4.89002 20.5399 5.0634 20.5674 5.24824C20.6108 5.41011 20.612 5.58043 20.5709 5.7429C20.4892 6.06374 20.2652 6.3134 20.0599 6.50474C19.8849 6.66807 17.6157 8.85674 15.3769 11.0174L12.3284 13.9574L11.7859 14.4824L18.6366 19.7347C18.729 19.7735 18.8295 19.7896 18.9294 19.7814C18.9797 19.7746 19.0271 19.7535 19.0659 19.7207C19.1132 19.6808 19.1538 19.6335 19.1861 19.5807L19.1884 19.5796L22.5601 2.57774C22.4538 2.60328 22.3497 2.63682 22.2486 2.67807L22.2462 2.67924ZM12.3751 17.1389L11.0077 16.0912L10.6764 18.1971L12.3751 17.1389ZM9.75356 14.0122L11.1127 12.6997L14.1612 9.7574L15.2964 8.66307L7.68973 13.1162L7.73056 13.2119C8.2103 14.3452 8.68475 15.4808 9.15389 16.6186L9.48406 14.5186C9.51394 14.3238 9.60894 14.1461 9.75356 14.0122Z" fill="#8726B9"/>
</svg>
