<svg width="10" height="13" viewBox="0 0 10 13" fill="none" xmlns="http://www.w3.org/2000/svg">
<path d="M5.47221 0.923951C5.34719 0.79897 5.17766 0.72876 5.00088 0.72876C4.8241 0.72876 4.65456 0.79897 4.52955 0.923951L0.758213 4.69528C0.69454 4.75678 0.643751 4.83035 0.608812 4.91168C0.573873 4.99302 0.555482 5.0805 0.554713 5.16902C0.553943 5.25754 0.570811 5.34532 0.604332 5.42725C0.637853 5.50918 0.687355 5.58362 0.74995 5.64621C0.812545 5.70881 0.886979 5.75831 0.96891 5.79183C1.05084 5.82535 1.13863 5.84222 1.22715 5.84145C1.31567 5.84068 1.40315 5.82229 1.48448 5.78735C1.56582 5.75241 1.63938 5.70162 1.70088 5.63795L4.33421 3.00462V11.8333C4.33421 12.0101 4.40445 12.1797 4.52948 12.3047C4.6545 12.4297 4.82407 12.5 5.00088 12.5C5.17769 12.5 5.34726 12.4297 5.47228 12.3047C5.59731 12.1797 5.66755 12.0101 5.66755 11.8333V3.00462L8.30088 5.63795C8.42662 5.75939 8.59502 5.82659 8.76981 5.82507C8.94461 5.82355 9.11182 5.75344 9.23543 5.62983C9.35903 5.50622 9.42914 5.33902 9.43066 5.16422C9.43218 4.98942 9.36499 4.82102 9.24355 4.69528L5.47221 0.923951Z" fill="#16920C"/>
</svg>
