<svg width="21" height="21" viewBox="0 0 21 21" fill="none" xmlns="http://www.w3.org/2000/svg">
<path d="M18.7444 14.7727L19.2073 15.2382L18.7435 14.7727H18.7444ZM7.71415 12.8862L8.17615 12.4207L7.71328 12.8862H7.71415ZM4.1039 3.61815L3.6419 3.15353L4.10478 3.61903L4.1039 3.61815ZM14.5497 12.1547L14.9495 11.7583L14.0229 10.8273L13.6257 11.2237L14.5497 12.1547ZM16.2874 11.592L17.9595 12.5012L18.5852 11.3479L16.9139 10.4397L16.2874 11.592ZM18.2807 14.3072L17.0382 15.5435L17.963 16.4737L19.2055 15.2382L18.2807 14.3072ZM16.2804 15.9408C15.0117 16.0598 11.7304 15.9539 8.17615 12.4207L7.2504 13.3508C11.1284 17.2069 14.82 17.3959 16.4029 17.248L16.2795 15.9408H16.2804ZM8.17615 12.4207C4.78903 9.0519 4.22728 6.21953 4.15728 4.99015L2.84653 5.06453C2.93403 6.61153 3.62965 9.75103 7.2504 13.3508L8.17615 12.4207ZM9.37928 7.01315L9.6304 6.7629L8.7064 5.83278L8.45528 6.08215L9.38015 7.01228L9.37928 7.01315ZM9.8299 3.58228L8.7274 2.10878L7.67653 2.89628L8.77903 4.3689L9.8299 3.58228ZM5.01653 1.78765L3.64278 3.15265L4.56853 4.08365L5.9414 2.71865L5.01653 1.78765ZM8.91728 6.54765C8.45353 6.08215 8.45353 6.08215 8.45353 6.0839H8.45178L8.44915 6.0874C8.40784 6.12957 8.37063 6.17557 8.33803 6.22478C8.29078 6.29478 8.23915 6.38665 8.1954 6.50303C8.08885 6.80343 8.06232 7.12639 8.1184 7.44015C8.23565 8.19703 8.75715 9.19715 10.0924 10.5254L11.0182 9.5944C9.76778 8.3519 9.47028 7.5959 9.41515 7.2389C9.3889 7.06915 9.41603 6.98515 9.4239 6.9659C9.42828 6.95365 9.43003 6.95278 9.4239 6.96065C9.41619 6.97278 9.4074 6.98421 9.39765 6.99478L9.3889 7.00353C9.38607 7.00625 9.38315 7.00887 9.38015 7.0114L8.9164 6.54765H8.91728ZM10.0924 10.5254C11.4285 11.8537 12.4339 12.3717 13.1917 12.4872C13.5793 12.5467 13.8917 12.4994 14.1288 12.411C14.2614 12.362 14.3854 12.2923 14.4963 12.2045C14.5113 12.1919 14.5259 12.1788 14.54 12.1652L14.5462 12.1599L14.5488 12.1573L14.5497 12.1555C14.5497 12.1555 14.5505 12.1547 14.0877 11.6892C13.6239 11.2237 13.6265 11.2228 13.6265 11.2228L13.6283 11.221L13.63 11.2193L13.6353 11.2149L13.644 11.2062C13.6545 11.1967 13.6657 11.1879 13.6773 11.1799C13.686 11.1738 13.6834 11.1764 13.6712 11.1817C13.6493 11.1895 13.5635 11.2167 13.3912 11.1904C13.0289 11.1344 12.2677 10.8369 11.0182 9.5944L10.0924 10.5254ZM8.7274 2.1079C7.8349 0.917901 6.0814 0.728901 5.01653 1.78765L5.9414 2.71865C6.4069 2.25578 7.2329 2.3039 7.67653 2.89628L8.72653 2.1079H8.7274ZM4.15815 4.99103C4.14065 4.68828 4.27978 4.37153 4.56853 4.08453L3.6419 3.15353C3.17203 3.62078 2.8019 4.28228 2.84653 5.06453L4.15815 4.99103ZM17.0382 15.5435C16.7984 15.7833 16.5394 15.918 16.2813 15.9417L16.4029 17.248C17.046 17.1877 17.5719 16.8639 17.9639 16.4745L17.0382 15.5435ZM9.6304 6.7629C10.4923 5.90628 10.5562 4.55265 9.83078 3.58315L8.7799 4.36978C9.13253 4.8414 9.08003 5.46003 8.70553 5.83365L9.6304 6.7629ZM17.9604 12.502C18.6753 12.8905 18.7864 13.8058 18.2815 14.308L19.2073 15.2382C20.3798 14.0718 20.0184 12.1267 18.586 11.3488L17.9604 12.502ZM14.9495 11.7592C15.2855 11.4249 15.8263 11.3427 16.2883 11.5929L16.9148 10.4405C15.9663 9.92428 14.7903 10.0669 14.0238 10.8282L14.9495 11.7592Z" fill="#321841"/>
</svg>
