<svg width="25" height="24" viewBox="0 0 25 24" fill="none" xmlns="http://www.w3.org/2000/svg">
<path d="M18.3105 12.998H13.3105V17.998C13.3105 18.2633 13.2052 18.5176 13.0177 18.7052C12.8301 18.8927 12.5758 18.998 12.3105 18.998C12.0453 18.998 11.791 18.8927 11.6034 18.7052C11.4159 18.5176 11.3105 18.2633 11.3105 17.998V12.998H6.31055C6.04533 12.998 5.79098 12.8927 5.60344 12.7052C5.4159 12.5176 5.31055 12.2633 5.31055 11.998C5.31055 11.7328 5.4159 11.4785 5.60344 11.2909C5.79098 11.1034 6.04533 10.998 6.31055 10.998H11.3105V5.99805C11.3105 5.73283 11.4159 5.47848 11.6034 5.29094C11.791 5.1034 12.0453 4.99805 12.3105 4.99805C12.5758 4.99805 12.8301 5.1034 13.0177 5.29094C13.2052 5.47848 13.3105 5.73283 13.3105 5.99805V10.998H18.3105C18.5758 10.998 18.8301 11.1034 19.0177 11.2909C19.2052 11.4785 19.3105 11.7328 19.3105 11.998C19.3105 12.2633 19.2052 12.5176 19.0177 12.7052C18.8301 12.8927 18.5758 12.998 18.3105 12.998Z" fill="#321841"/>
</svg>
