<svg width="20" height="20" viewBox="0 0 20 20" fill="none" xmlns="http://www.w3.org/2000/svg">
<path d="M5.875 4.8125C5.875 4.56386 5.97377 4.3254 6.14959 4.14959C6.3254 3.97377 6.56386 3.875 6.8125 3.875H12.4375C12.6861 3.875 12.9246 3.97377 13.1004 4.14959C13.2762 4.3254 13.375 4.56386 13.375 4.8125V5.75C13.375 5.99864 13.2762 6.2371 13.1004 6.41291C12.9246 6.58873 12.6861 6.6875 12.4375 6.6875H6.8125C6.56386 6.6875 6.3254 6.58873 6.14959 6.41291C5.97377 6.2371 5.875 5.99864 5.875 5.75V4.8125ZM6.8125 4.8125V5.75H12.4375V4.8125H6.8125ZM4 3.875V15.125C4 15.6223 4.19754 16.0992 4.54917 16.4508C4.90081 16.8025 5.37772 17 5.875 17H14.7813C14.9056 17 15.0248 16.9506 15.1127 16.8627C15.2006 16.7748 15.25 16.6556 15.25 16.5312C15.25 16.4069 15.2006 16.2877 15.1127 16.1998C15.0248 16.1119 14.9056 16.0625 14.7813 16.0625H5.875C5.62636 16.0625 5.3879 15.9637 5.21209 15.7879C5.03627 15.6121 4.9375 15.3736 4.9375 15.125H14.3125C14.5611 15.125 14.7996 15.0262 14.9754 14.8504C15.1512 14.6746 15.25 14.4361 15.25 14.1875V3.875C15.25 3.37772 15.0525 2.90081 14.7008 2.54917C14.3492 2.19754 13.8723 2 13.375 2H5.875C5.37772 2 4.90081 2.19754 4.54917 2.54917C4.19754 2.90081 4 3.37772 4 3.875ZM13.375 2.9375C13.6236 2.9375 13.8621 3.03627 14.0379 3.21209C14.2137 3.3879 14.3125 3.62636 14.3125 3.875V14.1875H4.9375V3.875C4.9375 3.62636 5.03627 3.3879 5.21209 3.21209C5.3879 3.03627 5.62636 2.9375 5.875 2.9375H13.375Z" fill="#321841"/>
</svg>
