<svg width="20" height="21" viewBox="0 0 20 21" fill="none" xmlns="http://www.w3.org/2000/svg">
<path d="M9.27963 1.73901L10.9103 1.74314C11.553 1.8208 12.1164 2.12314 12.5807 2.63367C12.9598 3.05001 13.1589 3.5341 13.1705 4.06114H17.6933C17.8444 4.06202 17.9889 4.1228 18.0951 4.23013C18.2014 4.33747 18.2607 4.48259 18.26 4.63362C18.2603 4.70837 18.2459 4.78245 18.2176 4.85163C18.1893 4.92081 18.1477 4.98373 18.0951 5.03682C18.0424 5.0899 17.9799 5.1321 17.911 5.161C17.842 5.18991 17.7681 5.20495 17.6933 5.20527L16.1766 5.20445V14.8094C16.1766 16.9101 15.3927 18.2608 13.6645 18.2608H6.21485C4.48667 18.2608 3.71511 16.9175 3.71511 14.8094V5.20445H2.30498C2.15431 5.20379 2.01005 5.14342 1.90382 5.03658C1.79759 4.92973 1.73806 4.78512 1.73828 4.63445C1.73828 4.31806 1.99189 4.0628 2.30498 4.0628H6.82367C6.83524 3.63819 6.99302 3.2078 7.28133 2.78236C7.71089 2.14793 8.38167 1.80014 9.27963 1.73901ZM15.0432 5.20445H4.84767V14.8094C4.84767 16.369 5.27724 17.1174 6.21485 17.1174H13.6645C14.6054 17.1174 15.0441 16.3624 15.0441 14.8094L15.0432 5.20445ZM7.28628 6.97641C7.59854 6.97641 7.85215 7.23249 7.85215 7.54806V14.1981C7.85248 14.2728 7.83808 14.3469 7.80978 14.4161C7.78147 14.4852 7.73982 14.5482 7.6872 14.6013C7.63458 14.6543 7.57201 14.6965 7.50308 14.7254C7.43415 14.7543 7.3602 14.7694 7.28546 14.7697C7.13464 14.7688 6.99035 14.7081 6.88425 14.601C6.77815 14.4938 6.71893 14.3489 6.71959 14.1981V7.54806C6.71959 7.23249 6.97402 6.97641 7.28628 6.97641ZM9.5382 6.97641C9.85211 6.97641 10.1049 7.23249 10.1049 7.54806V14.1981C10.1052 14.2728 10.0908 14.3469 10.0625 14.4161C10.0342 14.4852 9.99256 14.5482 9.93994 14.6013C9.88732 14.6543 9.82475 14.6965 9.75582 14.7254C9.68689 14.7543 9.61294 14.7694 9.5382 14.7697C9.38738 14.7688 9.24308 14.7081 9.13699 14.601C9.03089 14.4938 8.97167 14.3489 8.97233 14.1981V7.54806C8.97233 7.23249 9.22593 6.97641 9.5382 6.97641ZM11.7918 6.97641C12.104 6.97641 12.3576 7.23249 12.3576 7.54806V14.1981C12.3583 14.3489 12.2991 14.4938 12.193 14.601C12.0869 14.7081 11.9426 14.7688 11.7918 14.7697C11.717 14.7694 11.6431 14.7543 11.5741 14.7254C11.5052 14.6965 11.4426 14.6543 11.39 14.6013C11.3374 14.5482 11.2957 14.4852 11.2674 14.4161C11.2391 14.3469 11.2247 14.2728 11.2251 14.1981V7.54806C11.2246 7.39717 11.284 7.25226 11.3903 7.1451C11.4965 7.03795 11.6409 6.97728 11.7918 6.97641ZM9.31846 2.88067C8.78811 2.91784 8.43867 3.09875 8.21646 3.42754C8.05289 3.66793 7.97111 3.8761 7.95789 4.06197L12.0371 4.06114C12.0255 3.82075 11.9305 3.60927 11.7463 3.40688C11.4605 3.09297 11.1433 2.9228 10.8434 2.88232L9.31846 2.88067Z" fill="#321841"/>
</svg>
