<svg width="33" height="32" viewBox="0 0 33 32" fill="none" xmlns="http://www.w3.org/2000/svg">
<path d="M23.166 12.0027C26.066 12.0187 27.6367 12.148 28.6607 13.172C29.8327 14.344 29.8327 16.2294 29.8327 20V21.3334C29.8327 25.1054 29.8327 26.9907 28.6607 28.1627C27.49 29.3334 25.6033 29.3334 21.8327 29.3334H11.166C7.39535 29.3334 5.50868 29.3334 4.33802 28.1627C3.16602 26.9894 3.16602 25.1054 3.16602 21.3334V20C3.16602 16.2294 3.16602 14.344 4.33802 13.172C5.36202 12.148 6.93268 12.0187 9.83268 12.0027" stroke="#006BC5" stroke-width="1.5" stroke-linecap="round"/>
<path d="M16.5 2.66675V20.0001M16.5 20.0001L12.5 15.3334M16.5 20.0001L20.5 15.3334" stroke="#006BC5" stroke-width="1.5" stroke-linecap="round" stroke-linejoin="round"/>
</svg>
